<?xml version="1.0" encoding="utf-8" standalone="no"?><!DOCTYPE svg PUBLIC "-//W3C//DTD SVG 20010904//EN" "http://www.w3.org/TR/2001/REC-SVG-20010904/DTD/svg10.dtd"><svg xmlns="http://www.w3.org/2000/svg" width="283" height="346" xmlns:xlink="http://www.w3.org/1999/xlink"><source><![CDATA[Alice->Bob: Says Hello
Alice-> Evil : You seems stronger
Evil-->Alice: How are you?
Alice->>Evil: I am good thanks!]]></source><desc></desc><defs><marker viewBox="0 0 5 5" markerWidth="5" markerHeight="5" orient="auto" refX="5" refY="2.5" id="markerArrowBlock"><path d="M 0 0 L 5 2.5 L 0 5 z"></path></marker><marker viewBox="0 0 9.6 16" markerWidth="4" markerHeight="16" orient="auto" refX="9.6" refY="8" id="markerArrowOpen"><path d="M 9.6,8 1.92,16 0,13.7 5.76,8 0,2.286 1.92,0 9.6,8 z"></path></marker></defs><g class="title"></g><g class="actor"><path d="M10,20C19.7,17.7 49.0,22.3 68.0,20.0C66.4,38.8 69.6,33.7 68.0,60.0C30.3,57.7 54.1,62.3 10.0,60.0C8.4,42.0 11.6,53.6 10.0,20.0" style="stroke-width: 2px;" stroke="#000000" fill="#ffffff"></path><text x="20" y="47" style="font-size: 16px; font-family: danielbd;"><tspan x="20">Alice</tspan></text></g><g class="actor"><path d="M10,286C49.1,288.3 34.6,283.7 68.0,286.0C69.6,305.1 66.4,295.6 68.0,326.0C41.5,323.7 23.9,328.3 10.0,326.0C11.6,308.0 8.4,317.8 10.0,286.0" style="stroke-width: 2px;" stroke="#000000" fill="#ffffff"></path><text x="20" y="313" style="font-size: 16px; font-family: danielbd;"><tspan x="20">Alice</tspan></text></g><path d="M39.0,60.0C48.0,147.4 30.0,247.1 39.0,286.0" style="stroke-width: 2px;" stroke="#000000" fill="none"></path><g class="actor"><path d="M117.24166297912598,20C130.7,22.2 126.7,17.8 173.1,20.0C171.5,53.6 174.7,26.5 173.1,60.0C130.7,62.2 159.7,57.8 117.2,60.0C118.8,28.9 115.6,30.6 117.2,20.0" style="stroke-width: 2px;" stroke="#000000" fill="#ffffff"></path><text x="127.24166297912598" y="46" style="font-size: 16px; font-family: danielbd;"><tspan x="127.24166297912598">Bob</tspan></text></g><g class="actor"><path d="M117.24166297912598,286C136.6,288.2 144.5,283.8 173.1,286.0C171.5,316.4 174.7,317.5 173.1,326.0C153.9,328.2 160.3,323.8 117.2,326.0C118.8,307.7 115.6,319.6 117.2,286.0" style="stroke-width: 2px;" stroke="#000000" fill="#ffffff"></path><text x="127.24166297912598" y="312" style="font-size: 16px; font-family: danielbd;"><tspan x="127.24166297912598">Bob</tspan></text></g><path d="M145.2,60.0C136.2,198.4 154.2,249.8 145.2,286.0" style="stroke-width: 2px;" stroke="#000000" fill="none"></path><g class="actor"><path d="M199.39166641235352,20C222.6,17.8 242.2,22.2 253.2,20.0C254.8,53.6 251.6,50.4 253.2,60.0C234.9,62.2 235.5,57.8 199.4,60.0C197.8,50.4 201.0,32.3 199.4,20.0" style="stroke-width: 2px;" stroke="#000000" fill="#ffffff"></path><text x="209.39166641235352" y="47" style="font-size: 16px; font-family: danielbd;"><tspan x="209.39166641235352">Evil</tspan></text></g><g class="actor"><path d="M199.39166641235352,286C215.3,288.2 240.3,283.8 253.2,286.0C251.6,312.7 254.8,292.5 253.2,326.0C214.9,323.8 237.3,328.2 199.4,326.0C197.8,303.9 201.0,316.4 199.4,286.0" style="stroke-width: 2px;" stroke="#000000" fill="#ffffff"></path><text x="209.39166641235352" y="313" style="font-size: 16px; font-family: danielbd;"><tspan x="209.39166641235352">Evil</tspan></text></g><path d="M226.3,60.0C235.3,185.7 217.3,140.0 226.3,286.0" style="stroke-width: 2px;" stroke="#000000" fill="none"></path><g class="signal"><text x="49.99166679382324" y="86" style="font-size: 16px; font-family: danielbd;"><tspan x="48.99166679382324">Says Hello</tspan></text><path d="M39.0,112.0C73.4,107.8 104.9,116.2 145.2,112.0" style="stroke-width: 2px; marker-end: url(&quot;#markerArrowBlock&quot;);" stroke="#000000" fill="none"></path></g><g class="signal"><text x="48.99166679382324" y="137" style="font-size: 16px; font-family: danielbd;"><tspan x="48.99166679382324">You seems stronger</tspan></text><path d="M39.0,162.0C69.0,169.5 120.3,154.5 226.3,162.0" style="stroke-width: 2px; marker-end: url(&quot;#markerArrowBlock&quot;);" stroke="#000000" fill="none"></path></g><g class="signal"><text x="72.60000038146973" y="188" style="font-size: 16px; font-family: danielbd;"><tspan x="72.60000038146973">How are you?</tspan></text><path d="M226.3,214.0C154.3,221.5 196.3,206.5 39.0,214.0" style="stroke-width: 2px; stroke-dasharray: 6px, 2px; marker-end: url(&quot;#markerArrowBlock&quot;);" stroke="#000000" fill="none"></path></g><g class="signal"><text x="55.966665267944336" y="240" style="font-size: 16px; font-family: danielbd;"><tspan x="55.966665267944336">I am good thanks!</tspan></text><path d="M39.0,266.0C156.4,273.5 71.0,258.5 226.3,266.0" style="stroke-width: 2px; marker-end: url(&quot;#markerArrowOpen&quot;);" stroke="#000000" fill="none"></path></g></svg>